<svg xmlns="http://www.w3.org/2000/svg" xmlns:xlink="http://www.w3.org/1999/xlink" version="1.1" width="256" height="256" viewBox="0 0 256 256" xml:space="preserve">

<defs>
</defs>
<g style="stroke: none; stroke-width: 0; stroke-dasharray: none; stroke-linecap: butt; stroke-linejoin: miter; stroke-miterlimit: 10; fill: none; fill-rule: nonzero; opacity: 1;" transform="translate(1.4065934065934016 1.4065934065934016) scale(2.81 2.81)" >
	<path d="M 3.166 48 c -0.768 0 -1.536 -0.293 -2.121 -0.879 c -1.172 -1.171 -1.172 -3.071 0 -4.242 l 42 -42 c 1.171 -1.172 3.07 -1.172 4.242 0 c 1.172 1.171 1.172 3.071 0 4.242 l -42 42 C 4.702 47.707 3.934 48 3.166 48 z" style="stroke: none; stroke-width: 1; stroke-dasharray: none; stroke-linecap: butt; stroke-linejoin: miter; stroke-miterlimit: 10; fill: rgb(0,0,0); fill-rule: nonzero; opacity: 1;" transform=" matrix(1 0 0 1 0 0) " stroke-linecap="round" />
	<path d="M 3 64.899 c -0.768 0 -1.536 -0.293 -2.121 -0.879 c -1.172 -1.171 -1.172 -3.071 0 -4.242 L 59.778 0.879 c 1.172 -1.172 3.07 -1.172 4.242 0 c 1.172 1.171 1.172 3.071 0 4.242 L 5.121 64.021 C 4.536 64.606 3.768 64.899 3 64.899 z" style="stroke: none; stroke-width: 1; stroke-dasharray: none; stroke-linecap: butt; stroke-linejoin: miter; stroke-miterlimit: 10; fill: rgb(0,0,0); fill-rule: nonzero; opacity: 1;" transform=" matrix(1 0 0 1 0 0) " stroke-linecap="round" />
	<path d="M 3 81.633 c -0.768 0 -1.536 -0.293 -2.121 -0.879 c -1.172 -1.171 -1.172 -3.071 0 -4.242 L 76.512 0.879 c 1.172 -1.172 3.07 -1.172 4.242 0 c 1.172 1.171 1.172 3.071 0 4.242 L 5.121 80.754 C 4.536 81.34 3.768 81.633 3 81.633 z" style="stroke: none; stroke-width: 1; stroke-dasharray: none; stroke-linecap: butt; stroke-linejoin: miter; stroke-miterlimit: 10; fill: rgb(0,0,0); fill-rule: nonzero; opacity: 1;" transform=" matrix(1 0 0 1 0 0) " stroke-linecap="round" />
	<path d="M 11.367 90 c -0.768 0 -1.536 -0.293 -2.121 -0.879 c -1.172 -1.171 -1.172 -3.071 0 -4.242 L 84.879 9.246 c 1.172 -1.172 3.07 -1.172 4.242 0 c 1.172 1.171 1.172 3.071 0 4.242 L 13.488 89.121 C 12.902 89.707 12.134 90 11.367 90 z" style="stroke: none; stroke-width: 1; stroke-dasharray: none; stroke-linecap: butt; stroke-linejoin: miter; stroke-miterlimit: 10; fill: rgb(0,0,0); fill-rule: nonzero; opacity: 1;" transform=" matrix(1 0 0 1 0 0) " stroke-linecap="round" />
	<path d="M 28.101 90 c -0.768 0 -1.536 -0.293 -2.121 -0.879 c -1.172 -1.171 -1.172 -3.071 0 -4.242 l 58.899 -58.899 c 1.172 -1.172 3.07 -1.172 4.242 0 c 1.172 1.171 1.172 3.071 0 4.242 L 30.222 89.121 C 29.636 89.707 28.868 90 28.101 90 z" style="stroke: none; stroke-width: 1; stroke-dasharray: none; stroke-linecap: butt; stroke-linejoin: miter; stroke-miterlimit: 10; fill: rgb(0,0,0); fill-rule: nonzero; opacity: 1;" transform=" matrix(1 0 0 1 0 0) " stroke-linecap="round" />
	<path d="M 44.834 90 c -0.768 0 -1.536 -0.293 -2.121 -0.879 c -1.172 -1.171 -1.172 -3.071 0 -4.242 l 42.083 -42.083 c 1.172 -1.172 3.07 -1.172 4.242 0 c 1.172 1.171 1.172 3.071 0 4.242 L 46.955 89.121 C 46.369 89.707 45.602 90 44.834 90 z" style="stroke: none; stroke-width: 1; stroke-dasharray: none; stroke-linecap: butt; stroke-linejoin: miter; stroke-miterlimit: 10; fill: rgb(0,0,0); fill-rule: nonzero; opacity: 1;" transform=" matrix(1 0 0 1 0 0) " stroke-linecap="round" />
	<path d="M 61.567 90 c -0.768 0 -1.535 -0.293 -2.121 -0.879 c -1.172 -1.171 -1.172 -3.071 0 -4.242 l 25.433 -25.433 c 1.172 -1.172 3.07 -1.172 4.242 0 c 1.172 1.171 1.172 3.071 0 4.242 L 63.688 89.121 C 63.103 89.707 62.335 90 61.567 90 z" style="stroke: none; stroke-width: 1; stroke-dasharray: none; stroke-linecap: butt; stroke-linejoin: miter; stroke-miterlimit: 10; fill: rgb(0,0,0); fill-rule: nonzero; opacity: 1;" transform=" matrix(1 0 0 1 0 0) " stroke-linecap="round" />
	<path d="M 3 31.432 c -0.768 0 -1.536 -0.293 -2.121 -0.879 c -1.172 -1.171 -1.172 -3.071 0 -4.242 L 26.311 0.879 c 1.171 -1.172 3.071 -1.172 4.242 0 c 1.172 1.171 1.172 3.071 0 4.242 L 5.121 30.553 C 4.536 31.139 3.768 31.432 3 31.432 z" style="stroke: none; stroke-width: 1; stroke-dasharray: none; stroke-linecap: butt; stroke-linejoin: miter; stroke-miterlimit: 10; fill: rgb(0,0,0); fill-rule: nonzero; opacity: 1;" transform=" matrix(1 0 0 1 0 0) " stroke-linecap="round" />
	<path d="M 3 14.699 c -0.768 0 -1.536 -0.293 -2.121 -0.879 c -1.172 -1.171 -1.172 -3.071 0 -4.242 l 8.699 -8.699 c 1.171 -1.172 3.071 -1.172 4.242 0 c 1.172 1.171 1.172 3.071 0 4.242 L 5.121 13.82 C 4.536 14.406 3.768 14.699 3 14.699 z" style="stroke: none; stroke-width: 1; stroke-dasharray: none; stroke-linecap: butt; stroke-linejoin: miter; stroke-miterlimit: 10; fill: rgb(0,0,0); fill-rule: nonzero; opacity: 1;" transform=" matrix(1 0 0 1 0 0) " stroke-linecap="round" />
	<path d="M 78.302 90 c -0.768 0 -1.535 -0.293 -2.121 -0.879 c -1.172 -1.171 -1.172 -3.071 0 -4.242 l 8.698 -8.698 c 1.172 -1.172 3.07 -1.172 4.242 0 c 1.172 1.171 1.172 3.071 0 4.242 l -8.698 8.698 C 79.837 89.707 79.069 90 78.302 90 z" style="stroke: none; stroke-width: 1; stroke-dasharray: none; stroke-linecap: butt; stroke-linejoin: miter; stroke-miterlimit: 10; fill: rgb(0,0,0); fill-rule: nonzero; opacity: 1;" transform=" matrix(1 0 0 1 0 0) " stroke-linecap="round" />
</g>
</svg>